<?xml version="1.0" encoding="iso-8859-1"?>
<!-- Generator: Adobe Illustrator 19.0.0, SVG Export Plug-In . SVG Version: 6.00 Build 0)  -->
<svg version="1.1" id="Layer_1" xmlns="http://www.w3.org/2000/svg" xmlns:xlink="http://www.w3.org/1999/xlink" x="0px" y="0px"
	 viewBox="0 0 512 512" style="enable-background:new 0 0 512 512;" xml:space="preserve">
<path style="fill:#E8C684;" d="M179.814,512c-7.289,0-13.22-5.931-13.22-13.22V390.835c0-6.677-5.433-12.109-12.109-12.109h-41.308
	c-7.29-0.001-13.221-5.932-13.221-13.221v-63.52c0-6.678-5.433-12.11-12.109-12.11c-9.417,0-17.981-4.79-22.911-12.814
	c-4.929-8.024-5.331-17.83-1.074-26.23l22.686-44.767c0.855-1.688,1.307-3.582,1.307-5.473l0.001-52.574
	c0.503-35.295,18.375-71.98,49.033-100.646C169.558,16.823,211.859,0,256,0c91.533,0,166.514,74.454,167.145,165.971
	c0.007,0.784-0.063,1.6-0.205,2.416l-32.925,186.565c-0.123,0.699-0.185,1.408-0.185,2.114v141.714c0,7.289-5.931,13.22-13.22,13.22
	H179.814V512z"/>
<path style="fill:#E2AC76;" d="M225.005,466.811c-7.289,0-13.22-5.931-13.22-13.22V345.646c0-6.677-5.433-12.109-12.109-12.109
	h-41.308c-7.289,0-13.22-5.931-13.22-13.22v-63.52c0-6.677-5.433-12.109-12.109-12.109c-9.417,0-17.981-4.79-22.911-12.814
	c-4.929-8.024-5.331-17.83-1.074-26.23l22.686-44.767c0.855-1.688,1.307-3.582,1.307-5.473l0.001-52.574
	c0.348-24.364,8.974-49.387,24.366-71.981c-7.177,4.955-14.042,10.464-20.522,16.524c-30.658,28.668-48.53,65.352-49.033,100.646
	l-0.001,52.574c0,1.893-0.452,3.785-1.307,5.473l-22.686,44.767c-4.257,8.4-3.856,18.205,1.074,26.23
	c4.927,8.022,13.492,12.812,22.909,12.812c6.676,0,12.109,5.432,12.109,12.109v63.52c0,7.29,5.931,13.221,13.22,13.221h41.308
	c6.677,0,12.109,5.432,12.109,12.109v107.945c0,7.289,5.931,13.22,13.22,13.22h196.796c7.289,0,13.22-5.931,13.22-13.22V466.81
	H225.005V466.811z"/>
<g>
	<path style="fill:#6B532E;" d="M477.015,58.863H322.638c-4.601,0-8.33,3.729-8.33,8.33v51.089c0,4.6,3.728,8.33,8.33,8.33
		s8.33-3.729,8.33-8.33V75.523h146.048c4.601,0,8.33-3.729,8.33-8.33C485.345,62.593,481.617,58.863,477.015,58.863z"/>
	<path style="fill:#6B532E;" d="M39.427,64.416h152.711v52.755c0,4.6,3.728,8.33,8.33,8.33c4.601,0,8.33-3.729,8.33-8.33V56.087
		c0-4.6-3.728-8.33-8.33-8.33H39.427c-4.601,0-8.33,3.729-8.33,8.33S34.826,64.416,39.427,64.416z"/>
	<path style="fill:#6B532E;" d="M467.02,380.946H264.33V344.85v-42.204c0-4.6-3.728-8.33-8.33-8.33c-4.601,0-8.33,3.729-8.33,8.33
		v33.874H67.193c-4.601,0-8.33,3.729-8.33,8.33v80.521h-27.21c-4.601,0-8.33,3.729-8.33,8.33s3.728,8.33,8.33,8.33h35.54
		c4.601,0,8.33-3.729,8.33-8.33V353.18H247.67v36.095c0,4.6,3.728,8.33,8.33,8.33h211.02c4.601,0,8.33-3.73,8.33-8.33
		S471.621,380.946,467.02,380.946z"/>
</g>
<g>
	<path style="fill:#5683BF;" d="M489.232,89.961c-12.555,0-22.768-10.213-22.768-22.768s10.213-22.768,22.768-22.768
		S512,54.639,512,67.193S501.787,89.961,489.232,89.961z"/>
	<path style="fill:#5683BF;" d="M478.126,412.043c-12.555,0-22.768-10.213-22.768-22.768s10.213-22.768,22.768-22.768
		s22.768,10.213,22.768,22.768S490.68,412.043,478.126,412.043z"/>
	<path style="fill:#5683BF;" d="M22.768,78.855C10.213,78.855,0,68.641,0,56.087s10.213-22.768,22.768-22.768
		s22.768,10.213,22.768,22.768S35.322,78.855,22.768,78.855z"/>
	<path style="fill:#5683BF;" d="M22.768,456.469C10.213,456.469,0,446.255,0,433.701s10.213-22.768,22.768-22.768
		s22.768,10.213,22.768,22.768S35.322,456.469,22.768,456.469z"/>
</g>
<path style="fill:#CD5838;" d="M373.522,227.968c-0.934-3.483-3.169-6.395-6.292-8.199l-9.641-5.566
	c-4.351-2.512-6.744-7.322-6.096-12.257c0.542-4.143,0.817-8.376,0.817-12.585c0-4.185-0.277-8.414-0.823-12.575
	c-0.651-4.935,1.741-9.749,6.094-12.262l9.648-5.57c6.449-3.722,8.668-11.998,4.945-18.451l-15.776-27.324
	c-1.804-3.124-4.716-5.359-8.193-6.291c-1.146-0.308-2.328-0.464-3.51-0.464c-2.356,0-4.686,0.625-6.746,1.811l-9.655,5.574
	c-1.906,1.101-4.057,1.683-6.224,1.683c-2.711,0-5.287-0.879-7.451-2.542c-6.699-5.148-14.033-9.389-21.794-12.606
	c-4.582-1.899-7.543-6.375-7.543-11.402V77.831c0-7.448-6.059-13.506-13.506-13.506h-31.551c-7.448,0-13.506,6.06-13.506,13.506
	v11.113c0,5.028-2.961,9.504-7.545,11.402c-7.771,3.219-15.106,7.459-21.802,12.605c-2.161,1.661-4.737,2.539-7.448,2.539
	c-2.166,0-4.319-0.582-6.226-1.684l-9.646-5.569c-2.054-1.185-4.386-1.813-6.746-1.813c-1.183,0-2.365,0.157-3.503,0.463
	c-3.485,0.934-6.397,3.169-8.202,6.293l-15.775,27.326c-1.805,3.126-2.283,6.767-1.348,10.25c0.934,3.483,3.169,6.395,6.292,8.199
	l9.641,5.566c4.351,2.512,6.744,7.322,6.096,12.257c-0.542,4.143-0.817,8.376-0.817,12.585c0,4.185,0.277,8.414,0.823,12.575
	c0.651,4.935-1.741,9.749-6.094,12.262l-9.648,5.57c-6.449,3.722-8.668,11.998-4.945,18.451l15.776,27.324
	c1.804,3.124,4.716,5.359,8.201,6.293c1.144,0.307,2.322,0.462,3.502,0.462h0.001c2.359,0,4.691-0.625,6.745-1.811l9.654-5.573
	c1.906-1.101,4.058-1.683,6.224-1.683c2.711,0,5.288,0.879,7.45,2.541c6.696,5.147,14.029,9.388,21.795,12.606
	c4.582,1.899,7.543,6.375,7.543,11.402v11.114c0,7.448,6.058,13.506,13.506,13.506h31.551c7.448,0,13.506-6.06,13.506-13.506
	v-11.116c0-5.028,2.961-9.504,7.543-11.402c7.773-3.219,15.109-7.459,21.803-12.602c2.161-1.66,4.737-2.538,7.448-2.538
	c2.167,0,4.32,0.582,6.226,1.683l9.651,5.572c2.052,1.183,4.383,1.808,6.74,1.808c1.18,0,2.358-0.155,3.502-0.462
	c3.485-0.934,6.397-3.169,8.202-6.293l15.775-27.326C373.98,235.091,374.457,231.451,373.522,227.968z M256,245.449
	c-30.927,0-56.087-25.16-56.087-56.087s25.16-56.087,56.087-56.087s56.087,25.16,56.087,56.087S286.927,245.449,256,245.449z"/>
<g>
</g>
<g>
</g>
<g>
</g>
<g>
</g>
<g>
</g>
<g>
</g>
<g>
</g>
<g>
</g>
<g>
</g>
<g>
</g>
<g>
</g>
<g>
</g>
<g>
</g>
<g>
</g>
<g>
</g>
</svg>
