<?xml version="1.0" encoding="iso-8859-1"?>
<!-- Generator: Adobe Illustrator 19.0.0, SVG Export Plug-In . SVG Version: 6.00 Build 0)  -->
<svg version="1.1" id="Capa_1" xmlns="http://www.w3.org/2000/svg" xmlns:xlink="http://www.w3.org/1999/xlink" x="0px" y="0px"
	 viewBox="0 0 468.293 468.293" style="enable-background:new 0 0 468.293 468.293;" xml:space="preserve">
<polygon style="fill:#E1E6E9;" points="468.293,288.331 415.278,288.331 432.155,251.013 451.417,251.013 "/>
<polygon style="fill:#EBF0F3;" points="456.681,288.331 426.89,288.331 436.374,251.013 447.197,251.013 "/>
<polygon style="fill:#D5D6DB;" points="446.134,288.331 437.437,288.331 440.206,251.013 443.365,251.013 "/>
<g>
	<path style="fill:#3A556A;" d="M87.628,257.183v-0.232c-0.17,0.082-0.345,0.15-0.516,0.232H87.628z"/>
	<path style="fill:#3A556A;" d="M87.628,71.98v166.856c0,8.397,8.514,14.036,16.276,10.83
		c74.854-30.916,159.147-30.859,233.959,0.188c7.764,3.222,16.295-2.416,16.295-10.822V71.98H87.628z"/>
</g>
<path style="fill:#64798A;" d="M436.829,62.932L222.395,11.65c-0.987-0.237-2.017-0.237-3.004,0L4.956,62.932
	c-6.609,1.58-6.609,10.983,0,12.563l214.434,51.282c0.988,0.237,2.017,0.237,3.004,0l214.434-51.282
	C443.438,73.915,443.438,64.512,436.829,62.932z"/>
<polygon style="fill:#3A556A;" points="447.677,225.954 435.896,225.954 435.896,75.103 217.1,75.103 227.286,63.322 
	447.677,63.322 "/>
<ellipse style="fill:#2D93BA;" cx="441.756" cy="234.833" rx="17.389" ry="20.112"/>
<ellipse style="fill:#27A2DB;" cx="441.756" cy="234.833" rx="10.24" ry="20.112"/>
<ellipse style="fill:#2D93BA;" cx="441.756" cy="234.833" rx="3.159" ry="20.112"/>
<path style="fill:#EBF0F3;" d="M312.592,297.158c55.533-3.405,39.382,69.449,39.382,69.449h-86.784l23.04-60.078L312.592,297.158z"
	/>
<path style="fill:#E1E6E9;" d="M312.592,297.158H14.74c-19.653,19.652-19.653,91.516,0,111.168l299.073,0
	C294.16,388.674,291.583,302.902,312.592,297.158z"/>
<path style="fill:#D5D6DB;" d="M297.852,352.019c0,22.879,4.913,45.758,14.74,55.584c0,0,25.671,18.872,27.396-55.584H297.852"/>
<polygon style="fill:#E56353;" points="177.884,396.11 177.695,396.217 177.695,297.043 134.896,297.043 134.896,396.403 
	100.444,442.972 119.474,437.822 124.745,456.82 156.473,415.032 188.201,456.82 193.472,437.822 212.502,442.972 "/>
<g>
</g>
<g>
</g>
<g>
</g>
<g>
</g>
<g>
</g>
<g>
</g>
<g>
</g>
<g>
</g>
<g>
</g>
<g>
</g>
<g>
</g>
<g>
</g>
<g>
</g>
<g>
</g>
<g>
</g>
</svg>
